<svg width="22" height="22" viewBox="0 0 22 22" fill="none" xmlns="http://www.w3.org/2000/svg">
<path d="M20.8472 11.6414L11.7602 2.02427C11.6947 1.95483 11.617 1.89975 11.5315 1.86217C11.4459 1.82458 11.3542 1.80524 11.2616 1.80524C11.1689 1.80524 11.0772 1.82458 10.9917 1.86217C10.9061 1.89975 10.8284 1.95483 10.763 2.02427L1.67591 11.6414C1.41117 11.9218 1.26115 12.3026 1.26115 12.6998C1.26115 13.5246 1.89432 14.1952 2.67308 14.1952H3.63054V21.0576C3.63054 21.4711 3.94602 21.8052 4.33651 21.8052H9.84964V16.5714H12.3205V21.8052H18.1866C18.5771 21.8052 18.8926 21.4711 18.8926 21.0576V14.1952H19.8501C20.2251 14.1952 20.5847 14.0386 20.8494 13.7559C21.3988 13.1718 21.3988 12.2255 20.8472 11.6414V11.6414Z" fill="#4169E1"/>
</svg>
