<svg width="20" height="20" viewBox="0 0 20 20" fill="none" xmlns="http://www.w3.org/2000/svg">
<path d="M19.595 0H0.405737C0.180575 0 0 0.208218 0 0.46337V19.5341C0 19.7884 0.180575 20 0.405737 20H19.595C19.8187 20 20 19.7884 20 19.5341V0.46337C20 0.208218 19.8187 0 19.595 0ZM7.52842 4.20617C7.52842 5.57495 6.56387 6.67748 5.37713 6.67748C4.18667 6.67748 3.22509 5.57495 3.22509 4.20617C3.22509 2.84081 4.18741 1.73486 5.37713 1.73486C6.56387 1.73401 7.52842 2.84081 7.52842 4.20617ZM18.3949 17.6115H17.0513V19.1885H15.8824V17.6115H14.5226V16.27H15.8824V14.7434H17.0513V16.27H18.3949V17.6115V17.6115ZM18.655 14.2407H2.8082H1.53898V14.0513L4.92086 9.61215L6.82544 11.0876L9.04362 6.72014L11.6237 8.81939L13.9489 3.27431L18.6832 14.0376V14.2407C18.6832 14.2407 18.655 14.2407 18.655 14.2407Z" fill="#4169E1"/>
</svg>
