<svg width="20" height="20" viewBox="0 0 20 20" fill="none" xmlns="http://www.w3.org/2000/svg">
<path d="M9.29796 7.10609V9.29793H7.10612C6.71837 9.29793 6.40408 9.61222 6.40408 9.99997C6.40408 10.3877 6.71837 10.702 7.10612 10.702H9.29796V12.8938C9.29796 13.2816 9.61225 13.5959 10 13.5959C10.3878 13.5959 10.698 13.2816 10.698 12.8938V10.702H12.8898C13.2776 10.702 13.5918 10.3877 13.5918 9.99997C13.5918 9.61222 13.2776 9.29793 12.8898 9.29793H10.698V7.10609C10.698 6.71834 10.3837 6.40405 10 6.40405C9.61633 6.40405 9.29796 6.71834 9.29796 7.10609Z" fill="#4169E1"/>
<path d="M2.92653 2.92653C1.04082 4.81633 0 7.32653 0 10C0 12.6735 1.04082 15.1837 2.93061 17.0735C4.81633 18.9592 7.33061 20 10 20C12.6694 20 15.1837 18.9592 17.0735 17.0694C18.9592 15.1837 20 12.6694 20 10C20 7.33061 18.9592 4.81633 17.0694 2.92653C15.1837 1.04082 12.6735 0 10 0C7.33061 0 4.81633 1.04082 2.92653 2.92653ZM18.6 10C18.6 12.298 17.7061 14.4571 16.0816 16.0816C14.4571 17.7061 12.298 18.6 10 18.6C7.70204 18.6 5.54286 17.7061 3.91837 16.0816C2.29388 14.4571 1.4 12.298 1.4 10C1.4 7.70204 2.29388 5.54286 3.91837 3.91837C5.54286 2.29388 7.70204 1.4 10 1.4C12.298 1.4 14.4571 2.29388 16.0816 3.91837C17.7061 5.54286 18.6 7.70204 18.6 10Z" fill="#4169E1"/>
</svg>
