<svg width="22" height="22" viewBox="0 0 22 22" fill="none" xmlns="http://www.w3.org/2000/svg">
<path d="M11 0C4.9255 0 0 4.92454 0 10.9995C0 17.0745 4.92502 21.999 11 21.999C17.0755 21.999 22 17.0745 22 10.9995C22 4.92454 17.0755 0 11 0ZM11 3.28898C13.01 3.28898 14.6388 4.91826 14.6388 6.9273C14.6388 8.93684 13.01 10.5656 11 10.5656C8.99095 10.5656 7.36216 8.93684 7.36216 6.9273C7.36216 4.91826 8.99095 3.28898 11 3.28898ZM10.9976 19.1232C8.99288 19.1232 7.15681 18.3931 5.74062 17.1847C5.39563 16.8904 5.19656 16.4589 5.19656 16.0062C5.19656 13.9686 6.84565 12.3379 8.88369 12.3379H13.1173C15.1558 12.3379 16.7986 13.9686 16.7986 16.0062C16.7986 16.4594 16.6005 16.8899 16.255 17.1842C14.8393 18.3931 13.0028 19.1232 10.9976 19.1232Z" fill="#4169E1"/>
</svg>
