<svg width="100" height="100" viewBox="0 0 100 100" fill="none" xmlns="http://www.w3.org/2000/svg">
<g clip-path="url(#clip0_401_74)">
<path d="M50.0001 0.000582125C48.3126 0.000582125 46.6459 0.25194 45.0501 0.651624C44.1168 0.888207 43.2168 1.19892 42.3168 1.56308C41.9709 1.70479 41.6172 1.79367 41.2759 1.95371C41.1343 2.01967 41.0259 2.14512 40.8855 2.21412C40.0388 2.63321 39.2101 3.11846 38.4118 3.64642C38.2993 3.71892 38.1322 3.70221 38.0209 3.77662C37.7863 3.93762 37.6001 4.12742 37.3701 4.29725C36.7163 4.76642 36.0301 5.19725 35.4168 5.72975C34.8576 6.23266 34.3776 6.86475 33.8543 7.42225C32.083 9.2385 30.5476 11.1602 29.2968 13.4122C27.1493 17.1764 25.5459 21.4143 24.8701 25.7818C24.5438 25.7131 24.2447 25.6885 23.9584 25.7818C21.7705 26.4943 21.2313 30.6506 22.6563 35.0264C23.4926 37.5943 24.8838 39.616 26.3022 40.7556C28.2076 48.1631 32.2426 54.3381 37.5001 58.2047V62.5006L33.3334 66.6672L25.0001 70.8339C18.2613 74.1714 11.5484 77.5214 4.81759 80.8589C1.08788 83.1089 -0.355328 87.5256 8.86112e-05 91.6672C0.173689 94.2756 -0.768578 97.6131 1.82301 99.3506C4.28509 100.617 7.22259 99.7922 9.89592 100.001C17.7151 99.9964 25.5143 100.001 33.3334 100.001C44.4543 100.005 55.5459 100.001 66.6668 100.001C76.5293 100.001 86.3626 100.017 96.2251 100.001C99.4251 99.7756 100.313 96.3964 100 93.7506C100.058 89.8672 100.288 85.5172 97.2668 82.5506C94.8001 80.0422 91.2918 79.0506 88.2834 77.3422C83.8626 75.1547 79.4168 73.0214 75.0001 70.8339L66.6668 66.6672L62.5001 62.5006V58.2047C67.7584 54.3381 71.7918 48.1631 73.7001 40.7556C75.1168 39.6156 76.5084 37.5939 77.3418 35.0264C78.7668 30.6506 78.2293 26.4943 76.0418 25.7818C75.7543 25.6885 75.4584 25.7131 75.1293 25.7818C74.4543 21.4143 72.8501 17.1764 70.7043 13.4122C69.4543 11.1602 67.9168 9.2385 66.1459 7.42225C65.6209 6.86475 65.1418 6.23266 64.5834 5.72975C64.5584 5.70683 64.4793 5.75266 64.4543 5.72975C62.8209 4.27183 61.0084 3.15083 59.1168 2.21412C58.6376 1.97987 58.1709 1.76187 57.6834 1.56308C57.3334 1.42137 56.9959 1.29533 56.6418 1.17246C55.5793 0.80379 54.4918 0.44929 53.3834 0.260999C53.3001 0.246811 53.2084 0.274115 53.1251 0.260999C52.0876 0.0978988 51.0626 -0.0108762 50.0001 0.000582125V0.000582125Z" fill="#34495E"/>
<path d="M0 95.8333C0.110079 97.0833 0.527125 98.333 1.82292 99.1663C4.285 100.416 7.2225 99.5833 9.89583 100H33.3333H66.6667H96.225C98.625 99.5833 99.7333 97.9166 100 95.8333H0Z" fill="#2C3E50"/>
</g>
<defs>
<clipPath id="clip0_401_74">
<rect width="100" height="100" fill="white"/>
</clipPath>
</defs>
</svg>
